# xmcd CD database file
#
# Track frame offsets:
#	150
#	25891
#	38734
#	61527
#	80916
#
# Disc length: 1509 seconds
#
# Revision: 0
# Processed by: cddbd v1.5.2PL0 Copyright (c) Steve Scherf et al.
# Submitted via: CDex 1.51
#
DISCID=3405e305
DTITLE=Dizzy Gillespie - Cool Jazz Collection 
DYEAR=1900
DGENRE=Jazz
TTITLE0=51-1 On the Sunny Side of the Street
TTITLE1=51-2 September Song
TTITLE2=51-3 Con Alma
TTITLE3=51-4 A Night in Tunisia
TTITLE4=51-5 Manteca Theme
EXTD=
EXTT0=
EXTT1=
EXTT2=
EXTT3=
EXTT4=
PLAYORDER=
